<svg style="height: 512px; width: 512px;" xmlns="http://www.w3.org/2000/svg" viewBox="0 0 512 512"><path d="M0 0h512v512H0z" fill="#000" fill-opacity="1"></path><g class="" style="" transform="translate(10,10) scale(0.4 0.4)"><path d="M248.91 50c11.882-.006 23.875 1.018 35.857 3.13 85.207 15.025 152.077 81.895 167.102 167.102 15.023 85.208-24.944 170.917-99.874 214.178-32.782 18.927-69.254 27.996-105.463 27.553-46.555-.57-92.675-16.865-129.957-48.15l30.855-36.768c50.95 42.75 122.968 49.05 180.566 15.797 57.597-33.254 88.152-98.777 76.603-164.274-11.55-65.497-62.672-116.62-128.17-128.168-51.656-9.108-103.323 7.98-139.17 43.862L185 192H57V64l46.34 46.342C141.758 71.962 194.17 50.03 248.91 50z" fill="#fff" fill-opacity="1"></path></g><g class="" style="" transform="translate(0,0)"><path d="M400 25c-48.2 0-87 38.84-87 87 0 48.2 38.8 87 87 87s87-38.8 87-87c0-48.16-38.8-87-87-87zm40.5 34.01l15 9.98-70.1 105.11-55.8-55.7 12.8-12.8 40.2 40.3 57.9-86.89zM304.7 156.1L186.4 238H32v36h154.4l118.3 81.9c5.1-11 12.1-21 20.5-29.5L223.6 256l101.6-70.4c-8.4-8.5-15.4-18.5-20.5-29.5zM400 313c-48.2 0-87 38.8-87 87s38.8 87 87 87 87-38.8 87-87-38.8-87-87-87zm-41.6 32.6l41.6 41.6 41.6-41.6 12.8 12.8-41.6 41.6 41.6 41.6-12.8 12.8-41.6-41.6-41.6 41.6-12.8-12.8 41.6-41.6-41.6-41.6 12.8-12.8z" fill="#fff" fill-opacity="1"></path></g></svg>
