<svg xmlns="http://www.w3.org/2000/svg" viewBox="0 0 512 512" style="height: 512px; width: 512px;"><path d="M0 0h512v512H0z" fill="#000" fill-opacity="1"></path><g class="" transform="translate(0,0)" style=""><path d="M120.998 40.998v37.943C136.22 89.471 146 109.278 146 131.001c0 13.71-3.901 26.65-10.598 36.985 3.465 1.35 7.106 2.85 10.15 4.172l122.352-22.783 5.918 54.842-111.748 23.219c-.862 16.261-2.45 32.262-5.289 51.566h336.217V40.998zM96 88.998c-16.595 0-32.002 17.747-32.002 42.004 0 24.257 15.407 42.002 32.002 42.002 16.595 0 32.002-17.745 32.002-42.002S112.595 88.998 96 88.998zm156.096 81.629l-108.592 20.22c-14.24-5.602-4.956-3.035-21.469-8.517-7.476 5.469-16.33 8.672-26.035 8.672-8.6 0-16.53-2.523-23.428-6.9-8.59 3.564-17.655 8.09-25.736 12.654-12.992 7.338-23.722 13.211-27.838 16.033v130.213h20.004V232h17.996v263.002h30.004V326h17.996v169.002h26.004v-171.84l.154-.824c9.514-50.64 12.588-77.384 13.461-109.656l109.56-22.766zm-98.153 126.375c-.952 5.682-1.991 11.64-3.146 17.996H478v-17.996zM208 344.998c-16.595 0-32.002 17.747-32.002 42.004 0 18.198 8.67 32.73 20.01 38.855 3.599-1.662 7.482-2.706 11.68-2.851 4.633-.16 8.98.767 13.052 2.42 10.968-6.352 19.262-20.63 19.262-38.424 0-24.257-15.407-42.004-32.002-42.004zm112 0c-16.595 0-32.002 17.747-32.002 42.004 0 18.198 8.67 32.73 20.01 38.855 3.599-1.662 7.482-2.706 11.68-2.851 4.633-.16 8.98.767 13.052 2.42 10.968-6.352 19.262-20.63 19.262-38.424 0-24.257-15.407-42.004-32.002-42.004zm112 0c-16.595 0-32.002 17.747-32.002 42.004 0 18.198 8.67 32.73 20.01 38.855 3.599-1.662 7.482-2.706 11.68-2.851 4.633-.16 8.98.767 13.052 2.42 10.968-6.352 19.262-20.63 19.262-38.424 0-24.257-15.407-42.004-32.002-42.004zm-223.688 95.996c-3.844.133-8.907 2.93-14.3 8.785-5.394 5.855-10.696 14.25-15.125 22.76-4.226 8.12-7.609 16.16-10.06 22.463h85.339c-3.04-6.436-7.138-14.549-12.133-22.711-5.298-8.658-11.511-17.138-17.668-22.957-6.157-5.819-11.8-8.487-16.053-8.34zm112 0c-3.844.133-8.907 2.93-14.3 8.785-5.394 5.855-10.696 14.25-15.125 22.76-4.226 8.12-7.609 16.16-10.06 22.463h85.339c-3.04-6.436-7.138-14.549-12.133-22.711-5.298-8.658-11.511-17.138-17.668-22.957-6.157-5.819-11.8-8.487-16.052-8.34zm112 0c-3.844.133-8.907 2.93-14.3 8.785-5.394 5.855-10.696 14.25-15.125 22.76-4.226 8.12-7.609 16.16-10.06 22.463h85.339c-3.04-6.436-7.138-14.549-12.133-22.711-5.298-8.658-11.511-17.138-17.668-22.957-6.157-5.819-11.8-8.487-16.052-8.34z" fill="#fff" fill-opacity="1"></path></g><g class="" style="" transform="translate(270,60) scale(0.4 0.4)"><path d="M257.78 19.438c-127.92.016-231.75 103.855-231.75 231.78 0 55.734 19.71 106.776 52.532 146.72L57.75 434.094h132.406l-66.312-114.72-22.375 39c-20.9-30.478-33.064-67.442-33.064-107.155 0-104.523 84.854-189.376 189.375-189.376 104.523 0 189.408 84.853 189.408 189.375 0 39.108-11.68 75.664-32 105.874l-21.875-37.72L327 434.095h132.406l-21.594-37.47c32.225-39.78 51.75-90.253 51.75-145.405 0-127.927-103.827-231.766-231.75-231.782h-.03zm-.655 75.468c-49.528-.047-110.474 29.232-128.406 104.938l60.75 14.312c26.965-76.242 90.87-70.824 113.31-28.625 26.775 50.346-89.687 107.283-84.124 190.407h77.688c6.49-98.144 118.973-123.49 59.562-229.53C337.963 114.38 301 96.572 261.876 95.03V95c-1.573-.062-3.153-.092-4.75-.094zM258.5 395.97c-26.95 0-48.594 21.644-48.594 48.592 0 26.95 21.645 48.594 48.594 48.594 26.95 0 48.594-21.645 48.594-48.594 0-26.948-21.645-48.593-48.594-48.593z" fill="#000" fill-opacity="1"></path></g></svg>
